<svg xmlns="http://www.w3.org/2000/svg" width="3840" height="2160"><path d="M2115,1021L1977,839L1897,873Z" fill="#232730" stroke="#232730" stroke-width="1.51"/><path d="M1897,873L1805,999L2115,1021Z" fill="#242730" stroke="#242730" stroke-width="1.51"/><path d="M2330,869L2065,675L1977,839Z" fill="#242730" stroke="#242730" stroke-width="1.51"/><path d="M1977,839L1796,544L1897,873Z" fill="#242832" stroke="#242832" stroke-width="1.51"/><path d="M2115,1021L2330,869L1977,839Z" fill="#23262f" stroke="#23262f" stroke-width="1.51"/><path d="M1805,999L2060,1327L2115,1021Z" fill="#23262f" stroke="#23262f" stroke-width="1.51"/><path d="M2115,1021L2340,1118L2330,869Z" fill="#22252e" stroke="#22252e" stroke-width="1.51"/><path d="M2188,1317L2340,1118L2115,1021Z" fill="#22252d" stroke="#22252d" stroke-width="1.51"/><path d="M1805,999L1861,1366L2060,1327Z" fill="#22262e" stroke="#22262e" stroke-width="1.51"/><path d="M1521,907L1635,1152L1805,999Z" fill="#252731" stroke="#252731" stroke-width="1.51"/><path d="M1521,907L1805,999L1897,873Z" fill="#252831" stroke="#252831" stroke-width="1.51"/><path d="M2060,1327L2188,1317L2115,1021Z" fill="#22252d" stroke="#22252d" stroke-width="1.51"/><path d="M1635,1152L1861,1366L1805,999Z" fill="#23262f" stroke="#23262f" stroke-width="1.51"/><path d="M2068,1632L2320,1456L2188,1317Z" fill="#20232b" stroke="#20232b" stroke-width="1.51"/><path d="M2330,869L2316,658L2065,675Z" fill="#232730" stroke="#232730" stroke-width="1.51"/><path d="M2065,675L1796,544L1977,839Z" fill="#252832" stroke="#252832" stroke-width="1.51"/><path d="M1990,411L1796,544L2065,675Z" fill="#262933" stroke="#262933" stroke-width="1.51"/><path d="M1550,616L1521,907L1897,873Z" fill="#262933" stroke="#262933" stroke-width="1.51"/><path d="M2584,776L2409,712L2330,869Z" fill="#23262f" stroke="#23262f" stroke-width="1.51"/><path d="M2330,869L2409,712L2316,658Z" fill="#232630" stroke="#232630" stroke-width="1.51"/><path d="M1635,1152L1566,1274L1861,1366Z" fill="#22262f" stroke="#22262f" stroke-width="1.51"/><path d="M1374,1166L1566,1274L1635,1152Z" fill="#242730" stroke="#242730" stroke-width="1.51"/><path d="M2302,239L2204,486L2545,293Z" fill="#252935" stroke="#252935" stroke-width="1.51"/><path d="M2316,658L2204,486L2065,675Z" fill="#242832" stroke="#242832" stroke-width="1.51"/><path d="M2340,1118L2549,997L2330,869Z" fill="#22252e" stroke="#22252e" stroke-width="1.51"/><path d="M2556,1320L2549,997L2340,1118Z" fill="#20242c" stroke="#20242c" stroke-width="1.51"/><path d="M2204,486L1990,411L2065,675Z" fill="#252933" stroke="#252933" stroke-width="1.51"/><path d="M1861,1366L1824,1515L2060,1327Z" fill="#21242d" stroke="#21242d" stroke-width="1.51"/><path d="M1566,1274L1824,1515L1861,1366Z" fill="#22252e" stroke="#22252e" stroke-width="1.51"/><path d="M1796,544L1550,616L1897,873Z" fill="#252933" stroke="#252933" stroke-width="1.51"/><path d="M1606,407L1550,616L1796,544Z" fill="#272a35" stroke="#272a35" stroke-width="1.51"/><path d="M2188,1317L2320,1456L2340,1118Z" fill="#21242c" stroke="#21242c" stroke-width="1.51"/><path d="M2068,1632L2188,1317L2060,1327Z" fill="#20242c" stroke="#20242c" stroke-width="1.51"/><path d="M2549,997L2584,776L2330,869Z" fill="#22252e" stroke="#22252e" stroke-width="1.51"/><path d="M2545,293L2204,486L2316,658Z" fill="#242832" stroke="#242832" stroke-width="1.51"/><path d="M1566,1274L1540,1638L1824,1515Z" fill="#22252d" stroke="#22252d" stroke-width="1.51"/><path d="M1521,907L1374,1166L1635,1152Z" fill="#242731" stroke="#242731" stroke-width="1.51"/><path d="M1346,820L1374,1166L1521,907Z" fill="#252932" stroke="#252932" stroke-width="1.51"/><path d="M2787,1110L2630,872L2549,997Z" fill="#21242c" stroke="#21242c" stroke-width="1.51"/><path d="M2549,997L2630,872L2584,776Z" fill="#22252d" stroke="#22252d" stroke-width="1.51"/><path d="M1990,411L1766,355L1796,544Z" fill="#262b36" stroke="#262b36" stroke-width="1.51"/><path d="M1550,616L1346,820L1521,907Z" fill="#262a34" stroke="#262a34" stroke-width="1.51"/><path d="M1393,602L1346,820L1550,616Z" fill="#272a35" stroke="#272a35" stroke-width="1.51"/><path d="M1824,1515L2068,1632L2060,1327Z" fill="#21242c" stroke="#21242c" stroke-width="1.51"/><path d="M2320,1456L2556,1320L2340,1118Z" fill="#20232b" stroke="#20232b" stroke-width="1.51"/><path d="M2467,1464L2556,1320L2320,1456Z" fill="#20232a" stroke="#20232a" stroke-width="1.51"/><path d="M1766,355L1606,407L1796,544Z" fill="#272b36" stroke="#272b36" stroke-width="1.51"/><path d="M2454,1681L2467,1464L2320,1456Z" fill="#1f222a" stroke="#1f222a" stroke-width="1.51"/><path d="M1606,407L1393,602L1550,616Z" fill="#272b35" stroke="#272b35" stroke-width="1.51"/><path d="M1990,411L2037,261L1766,355Z" fill="#272b36" stroke="#272b36" stroke-width="1.51"/><path d="M1766,355L1562,227L1606,407Z" fill="#282c38" stroke="#282c38" stroke-width="1.51"/><path d="M2204,486L2037,261L1990,411Z" fill="#262a35" stroke="#262a35" stroke-width="1.51"/><path d="M2302,239L2037,261L2204,486Z" fill="#262a36" stroke="#262a36" stroke-width="1.51"/><path d="M2068,1632L2280,1744L2320,1456Z" fill="#1f222a" stroke="#1f222a" stroke-width="1.51"/><path d="M1824,1515L1974,1726L2068,1632Z" fill="#20232b" stroke="#20232b" stroke-width="1.51"/><path d="M1714,1738L1974,1726L1824,1515Z" fill="#21242b" stroke="#21242b" stroke-width="1.51"/><path d="M1374,1166L1302,1322L1566,1274Z" fill="#232730" stroke="#232730" stroke-width="1.51"/><path d="M1027,1094L1302,1322L1374,1166Z" fill="#252832" stroke="#252832" stroke-width="1.51"/><path d="M1302,1322L1421,1539L1566,1274Z" fill="#23262f" stroke="#23262f" stroke-width="1.51"/><path d="M2545,293L2316,658L2409,712Z" fill="#242831" stroke="#242831" stroke-width="1.51"/><path d="M1421,1539L1540,1638L1566,1274Z" fill="#22252e" stroke="#22252e" stroke-width="1.51"/><path d="M1540,1638L1714,1738L1824,1515Z" fill="#21242c" stroke="#21242c" stroke-width="1.51"/><path d="M2740,1295L2787,1110L2556,1320Z" fill="#1f232a" stroke="#1f232a" stroke-width="1.51"/><path d="M2556,1320L2787,1110L2549,997Z" fill="#20232b" stroke="#20232b" stroke-width="1.51"/><path d="M2630,872L2812,712L2584,776Z" fill="#22252e" stroke="#22252e" stroke-width="1.51"/><path d="M2584,776L2545,293L2409,712Z" fill="#232730" stroke="#232730" stroke-width="1.51"/><path d="M2655,1543L2740,1295L2556,1320Z" fill="#1f2229" stroke="#1f2229" stroke-width="1.51"/><path d="M2193,1917L2280,1744L2068,1632Z" fill="#1f2229" stroke="#1f2229" stroke-width="1.51"/><path d="M2467,1464L2655,1543L2556,1320Z" fill="#1f2229" stroke="#1f2229" stroke-width="1.51"/><path d="M2193,1917L2068,1632L1974,1726Z" fill="#1f222a" stroke="#1f222a" stroke-width="1.51"/><path d="M2280,1744L2454,1681L2320,1456Z" fill="#1f2229" stroke="#1f2229" stroke-width="1.51"/><path d="M1606,407L1375,259L1393,602Z" fill="#282c38" stroke="#282c38" stroke-width="1.51"/><path d="M1718,140L1562,227L1766,355Z" fill="#292d3a" stroke="#292d3a" stroke-width="1.51"/><path d="M1718,140L1766,355L2037,261Z" fill="#272c38" stroke="#272c38" stroke-width="1.51"/><path d="M2869,869L2812,712L2630,872Z" fill="#22252d" stroke="#22252d" stroke-width="1.51"/><path d="M1934,13L1718,140L2037,261Z" fill="#282d3a" stroke="#282d3a" stroke-width="1.51"/><path d="M2454,1681L2655,1543L2467,1464Z" fill="#1e2128" stroke="#1e2128" stroke-width="1.51"/><path d="M1346,820L1115,879L1374,1166Z" fill="#252933" stroke="#252933" stroke-width="1.51"/><path d="M1094,577L1115,879L1346,820Z" fill="#272b35" stroke="#272b35" stroke-width="1.51"/><path d="M1094,577L1346,820L1393,602Z" fill="#272b36" stroke="#272b36" stroke-width="1.51"/><path d="M2813,366L2545,293L2584,776Z" fill="#232731" stroke="#232731" stroke-width="1.51"/><path d="M2787,1110L2869,869L2630,872Z" fill="#21242c" stroke="#21242c" stroke-width="1.51"/><path d="M3015,1031L2869,869L2787,1110Z" fill="#21232c" stroke="#21232c" stroke-width="1.51"/><path d="M1540,1638L1520,1756L1714,1738Z" fill="#21242d" stroke="#21242d" stroke-width="1.51"/><path d="M2118,1976L2193,1917L1974,1726Z" fill="#1f2229" stroke="#1f2229" stroke-width="1.51"/><path d="M1338,1716L1520,1756L1540,1638Z" fill="#22252d" stroke="#22252d" stroke-width="1.51"/><path d="M1338,1716L1540,1638L1421,1539Z" fill="#22252d" stroke="#22252d" stroke-width="1.51"/><path d="M1562,227L1375,259L1606,407Z" fill="#292d39" stroke="#292d39" stroke-width="1.51"/><path d="M1544,9L1375,259L1562,227Z" fill="#2a2e3c" stroke="#2a2e3c" stroke-width="1.51"/><path d="M2278,21L1934,13L2037,261Z" fill="#282c3a" stroke="#282c3a" stroke-width="1.51"/><path d="M1718,140L1544,9L1562,227Z" fill="#292e3c" stroke="#292e3c" stroke-width="1.51"/><path d="M2278,21L2037,261L2302,239Z" fill="#272b38" stroke="#272b38" stroke-width="1.51"/><path d="M2454,1681L2732,1781L2655,1543Z" fill="#1e2128" stroke="#1e2128" stroke-width="1.51"/><path d="M2573,1968L2621,1935L2454,1681Z" fill="#1e2127" stroke="#1e2127" stroke-width="1.51"/><path d="M2118,1976L1974,1726L1734,1967Z" fill="#20232a" stroke="#20232a" stroke-width="1.51"/><path d="M1115,879L1027,1094L1374,1166Z" fill="#252933" stroke="#252933" stroke-width="1.51"/><path d="M1302,1322L1149,1624L1421,1539Z" fill="#23262f" stroke="#23262f" stroke-width="1.51"/><path d="M1248,305L1094,577L1393,602Z" fill="#282c38" stroke="#282c38" stroke-width="1.51"/><path d="M1115,879L893,988L1027,1094Z" fill="#262a35" stroke="#262a35" stroke-width="1.51"/><path d="M1027,1094L1092,1368L1302,1322Z" fill="#242832" stroke="#242832" stroke-width="1.51"/><path d="M1734,1967L1974,1726L1714,1738Z" fill="#20232b" stroke="#20232b" stroke-width="1.51"/><path d="M1149,1624L1338,1716L1421,1539Z" fill="#22262f" stroke="#22262f" stroke-width="1.51"/><path d="M2740,1295L2919,1325L2787,1110Z" fill="#20232a" stroke="#20232a" stroke-width="1.51"/><path d="M2655,1543L2919,1325L2740,1295Z" fill="#1f2229" stroke="#1f2229" stroke-width="1.51"/><path d="M2504,112L2278,21L2302,239Z" fill="#272b38" stroke="#272b38" stroke-width="1.51"/><path d="M1375,259L1248,305L1393,602Z" fill="#292d39" stroke="#292d39" stroke-width="1.51"/><path d="M1072,115L1248,305L1375,259Z" fill="#2a2e3c" stroke="#2a2e3c" stroke-width="1.51"/><path d="M2700,230L2504,112L2545,293Z" fill="#262a35" stroke="#262a35" stroke-width="1.51"/><path d="M2545,293L2504,112L2302,239Z" fill="#262a36" stroke="#262a36" stroke-width="1.51"/><path d="M1734,1967L1714,1738L1520,1756Z" fill="#21242c" stroke="#21242c" stroke-width="1.51"/><path d="M1529,1994L1734,1967L1520,1756Z" fill="#21242c" stroke="#21242c" stroke-width="1.51"/><path d="M2812,712L2813,366L2584,776Z" fill="#23262f" stroke="#23262f" stroke-width="1.51"/><path d="M2919,384L2813,366L2812,712Z" fill="#232730" stroke="#232730" stroke-width="1.51"/><path d="M2869,869L3008,720L2812,712Z" fill="#22252d" stroke="#22252d" stroke-width="1.51"/><path d="M2919,1325L3015,1031L2787,1110Z" fill="#20232a" stroke="#20232a" stroke-width="1.51"/><path d="M2813,366L2700,230L2545,293Z" fill="#252934" stroke="#252934" stroke-width="1.51"/><path d="M3015,1031L3008,720L2869,869Z" fill="#21242c" stroke="#21242c" stroke-width="1.51"/><path d="M1092,1368L1149,1624L1302,1322Z" fill="#232730" stroke="#232730" stroke-width="1.51"/><path d="M1374,2022L1529,1994L1520,1756Z" fill="#21252c" stroke="#21252c" stroke-width="1.51"/><path d="M904,1517L1149,1624L1092,1368Z" fill="#242731" stroke="#242731" stroke-width="1.51"/><path d="M1708,-195L1544,9L1718,140Z" fill="#2a2f3e" stroke="#2a2f3e" stroke-width="1.51"/><path d="M1027,1094L991,1372L1092,1368Z" fill="#252832" stroke="#252832" stroke-width="1.51"/><path d="M1094,577L907,840L1115,879Z" fill="#272b36" stroke="#272b36" stroke-width="1.51"/><path d="M1027,1094L641,1285L991,1372Z" fill="#252a34" stroke="#252a34" stroke-width="1.51"/><path d="M879,652L907,840L1094,577Z" fill="#292c38" stroke="#292c38" stroke-width="1.51"/><path d="M907,840L893,988L1115,879Z" fill="#272b36" stroke="#272b36" stroke-width="1.51"/><path d="M2655,1543L2973,1536L2919,1325Z" fill="#1f2128" stroke="#1f2128" stroke-width="1.51"/><path d="M2621,1935L2732,1781L2454,1681Z" fill="#1e2127" stroke="#1e2127" stroke-width="1.51"/><path d="M2454,1681L2280,1744L2573,1968Z" fill="#1e2128" stroke="#1e2128" stroke-width="1.51"/><path d="M2504,112L2567,39L2278,21Z" fill="#272c38" stroke="#272c38" stroke-width="1.51"/><path d="M2700,230L2567,39L2504,112Z" fill="#262b37" stroke="#262b37" stroke-width="1.51"/><path d="M2816,24L2567,39L2700,230Z" fill="#262a37" stroke="#262a37" stroke-width="1.51"/><path d="M2813,366L2972,250L2700,230Z" fill="#252933" stroke="#252933" stroke-width="1.51"/><path d="M3008,720L2919,384L2812,712Z" fill="#23262f" stroke="#23262f" stroke-width="1.51"/><path d="M1248,305L1086,333L1094,577Z" fill="#292d3a" stroke="#292d3a" stroke-width="1.51"/><path d="M1072,115L1086,333L1248,305Z" fill="#2a2f3c" stroke="#2a2f3c" stroke-width="1.51"/><path d="M1374,2022L1520,1756L1338,1716Z" fill="#21252d" stroke="#21252d" stroke-width="1.51"/><path d="M1734,1967L1841,2258L2118,1976Z" fill="#202329" stroke="#202329" stroke-width="1.51"/><path d="M2732,1781L2973,1536L2655,1543Z" fill="#1e2127" stroke="#1e2127" stroke-width="1.51"/><path d="M2919,1325L3245,1145L3015,1031Z" fill="#1f222a" stroke="#1f222a" stroke-width="1.51"/><path d="M1934,13L1845,-162L1718,140Z" fill="#2a2e3c" stroke="#2a2e3c" stroke-width="1.51"/><path d="M1986,-248L1845,-162L1934,13Z" fill="#2a2f3e" stroke="#2a2f3e" stroke-width="1.51"/><path d="M1986,-248L1934,13L2278,21Z" fill="#292e3c" stroke="#292e3c" stroke-width="1.51"/><path d="M2573,1968L2280,1744L2193,1917Z" fill="#1f2128" stroke="#1f2128" stroke-width="1.51"/><path d="M3098,1716L3087,1513L2973,1536Z" fill="#1e2027" stroke="#1e2027" stroke-width="1.51"/><path d="M2257,2249L2193,1917L2118,1976Z" fill="#1f2228" stroke="#1f2228" stroke-width="1.51"/><path d="M2257,2249L2573,1968L2193,1917Z" fill="#1f2127" stroke="#1f2127" stroke-width="1.51"/><path d="M907,840L698,840L893,988Z" fill="#282c37" stroke="#282c37" stroke-width="1.51"/><path d="M855,358L879,652L1094,577Z" fill="#2a2d3a" stroke="#2a2d3a" stroke-width="1.51"/><path d="M871,1857L1177,1842L1149,1624Z" fill="#23262f" stroke="#23262f" stroke-width="1.51"/><path d="M1149,1624L1177,1842L1338,1716Z" fill="#23262e" stroke="#23262e" stroke-width="1.51"/><path d="M3008,720L3098,542L2919,384Z" fill="#22262f" stroke="#22262f" stroke-width="1.51"/><path d="M2919,384L2972,250L2813,366Z" fill="#242833" stroke="#242833" stroke-width="1.51"/><path d="M3323,666L3098,542L3008,720Z" fill="#22252d" stroke="#22252d" stroke-width="1.51"/><path d="M3238,886L3008,720L3015,1031Z" fill="#21242c" stroke="#21242c" stroke-width="1.51"/><path d="M1845,-162L1708,-195L1718,140Z" fill="#2a2f3e" stroke="#2a2f3e" stroke-width="1.51"/><path d="M1352,-132L1072,115L1375,259Z" fill="#2b303e" stroke="#2b303e" stroke-width="1.51"/><path d="M991,1372L904,1517L1092,1368Z" fill="#242832" stroke="#242832" stroke-width="1.51"/><path d="M641,1285L904,1517L991,1372Z" fill="#252934" stroke="#252934" stroke-width="1.51"/><path d="M641,1285L1027,1094L893,988Z" fill="#272a36" stroke="#272a36" stroke-width="1.51"/><path d="M1201,1935L1374,2022L1338,1716Z" fill="#22252d" stroke="#22252d" stroke-width="1.51"/><path d="M1619,2273L1841,2258L1734,1967Z" fill="#20232a" stroke="#20232a" stroke-width="1.51"/><path d="M3125,453L2972,250L2919,384Z" fill="#242832" stroke="#242832" stroke-width="1.51"/><path d="M2311,-285L1986,-248L2278,21Z" fill="#292e3e" stroke="#292e3e" stroke-width="1.51"/><path d="M1845,-162L1986,-248L1708,-195Z" fill="#2b3040" stroke="#2b3040" stroke-width="1.51"/><path d="M2973,1536L3087,1513L2919,1325Z" fill="#1e2128" stroke="#1e2128" stroke-width="1.51"/><path d="M2968,1804L2973,1536L2732,1781Z" fill="#1e2027" stroke="#1e2027" stroke-width="1.51"/><path d="M1177,1842L1201,1935L1338,1716Z" fill="#22252e" stroke="#22252e" stroke-width="1.51"/><path d="M937,2077L1201,1935L1177,1842Z" fill="#22262e" stroke="#22262e" stroke-width="1.51"/><path d="M1986,-248L1643,-223L1708,-195Z" fill="#2b3040" stroke="#2b3040" stroke-width="1.51"/><path d="M1708,-195L1643,-223L1544,9Z" fill="#2b303f" stroke="#2b303f" stroke-width="1.51"/><path d="M3098,542L3125,453L2919,384Z" fill="#232730" stroke="#232730" stroke-width="1.51"/><path d="M3323,666L3125,453L3098,542Z" fill="#22262e" stroke="#22262e" stroke-width="1.51"/><path d="M3245,1145L3238,886L3015,1031Z" fill="#20232a" stroke="#20232a" stroke-width="1.51"/><path d="M1352,-132L1375,259L1544,9Z" fill="#2b2f3e" stroke="#2b2f3e" stroke-width="1.51"/><path d="M1086,333L855,358L1094,577Z" fill="#2a2e3b" stroke="#2a2e3b" stroke-width="1.51"/><path d="M2972,250L2816,24L2700,230Z" fill="#252a35" stroke="#252a35" stroke-width="1.51"/><path d="M2561,-241L2311,-285L2278,21Z" fill="#292e3c" stroke="#292e3c" stroke-width="1.51"/><path d="M3116,176L2816,24L2972,250Z" fill="#252935" stroke="#252935" stroke-width="1.51"/><path d="M3270,1293L3245,1145L2919,1325Z" fill="#1f2229" stroke="#1f2229" stroke-width="1.51"/><path d="M1643,-223L1352,-132L1544,9Z" fill="#2c3040" stroke="#2c3040" stroke-width="1.51"/><path d="M2913,2079L2968,1804L2732,1781Z" fill="#1e2026" stroke="#1e2026" stroke-width="1.51"/><path d="M3087,1513L3270,1293L2919,1325Z" fill="#1e2128" stroke="#1e2128" stroke-width="1.51"/><path d="M2913,2079L2732,1781L2621,1935Z" fill="#1e2026" stroke="#1e2026" stroke-width="1.51"/><path d="M961,194L855,358L1086,333Z" fill="#2b2f3d" stroke="#2b2f3d" stroke-width="1.51"/><path d="M879,652L698,840L907,840Z" fill="#292d39" stroke="#292d39" stroke-width="1.51"/><path d="M821,18L961,194L1072,115Z" fill="#2c3140" stroke="#2c3140" stroke-width="1.51"/><path d="M1072,115L961,194L1086,333Z" fill="#2b2f3d" stroke="#2b2f3d" stroke-width="1.51"/><path d="M1383,2158L1529,1994L1374,2022Z" fill="#21242c" stroke="#21242c" stroke-width="1.51"/><path d="M1619,2273L1734,1967L1529,1994Z" fill="#21242a" stroke="#21242a" stroke-width="1.51"/><path d="M592,610L698,840L879,652Z" fill="#2a2e3a" stroke="#2a2e3a" stroke-width="1.51"/><path d="M2561,-241L2278,21L2567,39Z" fill="#272d3a" stroke="#272d3a" stroke-width="1.51"/><path d="M1986,-248L1440,-335L1643,-223Z" fill="#2b3142" stroke="#2b3142" stroke-width="1.51"/><path d="M1999,2284L2257,2249L2118,1976Z" fill="#1f2228" stroke="#1f2228" stroke-width="1.51"/><path d="M2573,1968L2748,2173L2621,1935Z" fill="#1e2026" stroke="#1e2026" stroke-width="1.51"/><path d="M1841,2258L1999,2284L2118,1976Z" fill="#1f2229" stroke="#1f2229" stroke-width="1.51"/><path d="M3357,1616L3270,1293L3087,1513Z" fill="#1e2127" stroke="#1e2127" stroke-width="1.51"/><path d="M3459,942L3323,666L3238,886Z" fill="#21242b" stroke="#21242b" stroke-width="1.51"/><path d="M2816,24L2615,-192L2567,39Z" fill="#272c39" stroke="#272c39" stroke-width="1.51"/><path d="M1212,2207L1383,2158L1374,2022Z" fill="#21252c" stroke="#21252c" stroke-width="1.51"/><path d="M2968,1804L3098,1716L2973,1536Z" fill="#1d2026" stroke="#1d2026" stroke-width="1.51"/><path d="M2615,-192L2561,-241L2567,39Z" fill="#282d3b" stroke="#282d3b" stroke-width="1.51"/><path d="M1841,2258L1860,2421L1999,2284Z" fill="#202228" stroke="#202228" stroke-width="1.51"/><path d="M1383,2158L1619,2273L1529,1994Z" fill="#21242b" stroke="#21242b" stroke-width="1.51"/><path d="M1352,-132L1120,-85L1072,115Z" fill="#2c3140" stroke="#2c3140" stroke-width="1.51"/><path d="M656,103L637,478L855,358Z" fill="#2c313f" stroke="#2c313f" stroke-width="1.51"/><path d="M1162,-231L1120,-85L1352,-132Z" fill="#2d3242" stroke="#2d3242" stroke-width="1.51"/><path d="M3125,453L3116,176L2972,250Z" fill="#242833" stroke="#242833" stroke-width="1.51"/><path d="M3238,886L3323,666L3008,720Z" fill="#21252c" stroke="#21252c" stroke-width="1.51"/><path d="M3362,1019L3238,886L3245,1145Z" fill="#20232a" stroke="#20232a" stroke-width="1.51"/><path d="M3351,1229L3362,1019L3245,1145Z" fill="#202229" stroke="#202229" stroke-width="1.51"/><path d="M595,1031L641,1285L893,988Z" fill="#272b37" stroke="#272b37" stroke-width="1.51"/><path d="M904,1517L871,1857L1149,1624Z" fill="#242731" stroke="#242731" stroke-width="1.51"/><path d="M1201,1935L1212,2207L1374,2022Z" fill="#22252d" stroke="#22252d" stroke-width="1.51"/><path d="M2816,24L2900,-140L2615,-192Z" fill="#272c39" stroke="#272c39" stroke-width="1.51"/><path d="M2615,-192L2866,-338L2561,-241Z" fill="#282d3c" stroke="#282d3c" stroke-width="1.51"/><path d="M3350,235L3116,176L3125,453Z" fill="#242832" stroke="#242832" stroke-width="1.51"/><path d="M3270,1293L3351,1229L3245,1145Z" fill="#1f2228" stroke="#1f2228" stroke-width="1.51"/><path d="M3357,1616L3351,1229L3270,1293Z" fill="#1f2127" stroke="#1f2127" stroke-width="1.51"/><path d="M517,891L595,1031L698,840Z" fill="#292d3a" stroke="#292d3a" stroke-width="1.51"/><path d="M698,840L595,1031L893,988Z" fill="#282c38" stroke="#282c38" stroke-width="1.51"/><path d="M2311,-285L1440,-335L1986,-248Z" fill="#2b3040" stroke="#2b3040" stroke-width="1.51"/><path d="M1643,-223L1440,-335L1352,-132Z" fill="#2c3242" stroke="#2c3242" stroke-width="1.51"/><path d="M2593,2263L2748,2173L2573,1968Z" fill="#1d2025" stroke="#1d2025" stroke-width="1.51"/><path d="M2968,1804L3208,1935L3098,1716Z" fill="#1d2026" stroke="#1d2026" stroke-width="1.51"/><path d="M752,1697L871,1857L904,1517Z" fill="#242832" stroke="#242832" stroke-width="1.51"/><path d="M2510,2403L2593,2263L2257,2249Z" fill="#1e2025" stroke="#1e2025" stroke-width="1.51"/><path d="M2257,2249L2593,2263L2573,1968Z" fill="#1e2026" stroke="#1e2026" stroke-width="1.51"/><path d="M630,1561L752,1697L904,1517Z" fill="#242833" stroke="#242833" stroke-width="1.51"/><path d="M855,358L637,478L879,652Z" fill="#2a2f3c" stroke="#2a2f3c" stroke-width="1.51"/><path d="M656,103L855,358L961,194Z" fill="#2c3140" stroke="#2c3140" stroke-width="1.51"/><path d="M3084,-122L2900,-140L2816,24Z" fill="#272b39" stroke="#272b39" stroke-width="1.51"/><path d="M3098,1716L3357,1616L3087,1513Z" fill="#1e2026" stroke="#1e2026" stroke-width="1.51"/><path d="M2748,2173L2913,2079L2621,1935Z" fill="#1e2026" stroke="#1e2026" stroke-width="1.51"/><path d="M2981,2128L2913,2079L2748,2173Z" fill="#1d2025" stroke="#1d2025" stroke-width="1.51"/><path d="M637,478L592,610L879,652Z" fill="#2a2e3b" stroke="#2a2e3b" stroke-width="1.51"/><path d="M641,1285L630,1561L904,1517Z" fill="#252935" stroke="#252935" stroke-width="1.51"/><path d="M595,1031L540,1080L641,1285Z" fill="#272c38" stroke="#272c38" stroke-width="1.51"/><path d="M517,891L540,1080L595,1031Z" fill="#282d3a" stroke="#282d3a" stroke-width="1.51"/><path d="M1619,2273L1860,2421L1841,2258Z" fill="#202329" stroke="#202329" stroke-width="1.51"/><path d="M1999,2284L2214,2412L2257,2249Z" fill="#1f2127" stroke="#1f2127" stroke-width="1.51"/><path d="M1578,2543L1860,2421L1619,2273Z" fill="#202329" stroke="#202329" stroke-width="1.51"/><path d="M1860,2421L2032,2427L1999,2284Z" fill="#202228" stroke="#202228" stroke-width="1.51"/><path d="M2032,2427L2214,2412L1999,2284Z" fill="#1f2127" stroke="#1f2127" stroke-width="1.51"/><path d="M1383,2158L1389,2386L1619,2273Z" fill="#21242b" stroke="#21242b" stroke-width="1.51"/><path d="M937,2077L1212,2207L1201,1935Z" fill="#23252d" stroke="#23252d" stroke-width="1.51"/><path d="M1120,-85L821,18L1072,115Z" fill="#2c3241" stroke="#2c3241" stroke-width="1.51"/><path d="M1440,-335L1162,-231L1352,-132Z" fill="#2d3243" stroke="#2d3243" stroke-width="1.51"/><path d="M3362,1019L3459,942L3238,886Z" fill="#20232a" stroke="#20232a" stroke-width="1.51"/><path d="M3387,295L3350,235L3125,453Z" fill="#242731" stroke="#242731" stroke-width="1.51"/><path d="M3595,1221L3459,942L3362,1019Z" fill="#1f2329" stroke="#1f2329" stroke-width="1.51"/><path d="M592,610L517,891L698,840Z" fill="#2a2e3b" stroke="#2a2e3b" stroke-width="1.51"/><path d="M488,1368L630,1561L641,1285Z" fill="#262a36" stroke="#262a36" stroke-width="1.51"/><path d="M644,2047L937,2077L871,1857Z" fill="#242731" stroke="#242731" stroke-width="1.51"/><path d="M806,-225L821,18L1120,-85Z" fill="#2d3344" stroke="#2d3344" stroke-width="1.51"/><path d="M3351,1229L3595,1221L3362,1019Z" fill="#202228" stroke="#202228" stroke-width="1.51"/><path d="M3208,1935L3357,1616L3098,1716Z" fill="#1d2025" stroke="#1d2025" stroke-width="1.51"/><path d="M2810,2494L2923,2405L2748,2173Z" fill="#1d1f24" stroke="#1d1f24" stroke-width="1.51"/><path d="M2214,2412L2510,2403L2257,2249Z" fill="#1e2126" stroke="#1e2126" stroke-width="1.51"/><path d="M2810,2494L2510,2403L2214,2412Z" fill="#1d2025" stroke="#1d2025" stroke-width="1.51"/><path d="M2913,2079L3208,1935L2968,1804Z" fill="#1d2025" stroke="#1d2025" stroke-width="1.51"/><path d="M3095,2231L2981,2128L2923,2405Z" fill="#1d1f24" stroke="#1d1f24" stroke-width="1.51"/><path d="M644,2047L871,1857L752,1697Z" fill="#242832" stroke="#242832" stroke-width="1.51"/><path d="M871,1857L937,2077L1177,1842Z" fill="#23272f" stroke="#23272f" stroke-width="1.51"/><path d="M1039,2350L1389,2386L1212,2207Z" fill="#22252b" stroke="#22252b" stroke-width="1.51"/><path d="M1212,2207L1389,2386L1383,2158Z" fill="#21242b" stroke="#21242b" stroke-width="1.51"/><path d="M540,1080L488,1368L641,1285Z" fill="#272c38" stroke="#272c38" stroke-width="1.51"/><path d="M630,1561L422,1814L752,1697Z" fill="#252934" stroke="#252934" stroke-width="1.51"/><path d="M260,1345L488,1368L540,1080Z" fill="#272c39" stroke="#272c39" stroke-width="1.51"/><path d="M3387,295L3125,453L3323,666Z" fill="#23262f" stroke="#23262f" stroke-width="1.51"/><path d="M3116,176L3084,-122L2816,24Z" fill="#262b37" stroke="#262b37" stroke-width="1.51"/><path d="M3421,-86L3084,-122L3116,176Z" fill="#262b37" stroke="#262b37" stroke-width="1.51"/><path d="M2900,-140L2866,-338L2615,-192Z" fill="#282d3b" stroke="#282d3b" stroke-width="1.51"/><path d="M2981,2128L3208,1935L2913,2079Z" fill="#1d1f25" stroke="#1d1f25" stroke-width="1.51"/><path d="M3597,339L3387,295L3323,666Z" fill="#24272f" stroke="#24272f" stroke-width="1.51"/><path d="M2311,-285L2866,-338L1440,-335Z" fill="#2a3040" stroke="#2a3040" stroke-width="1.51"/><path d="M2561,-241L2866,-338L2311,-285Z" fill="#292e3d" stroke="#292e3d" stroke-width="1.51"/><path d="M3118,-193L2866,-338L2900,-140Z" fill="#272d3a" stroke="#272d3a" stroke-width="1.51"/><path d="M821,18L656,103L961,194Z" fill="#2d3242" stroke="#2d3242" stroke-width="1.51"/><path d="M369,484L353,554L592,610Z" fill="#2b303e" stroke="#2b303e" stroke-width="1.51"/><path d="M592,610L265,700L517,891Z" fill="#2a2f3d" stroke="#2a2f3d" stroke-width="1.51"/><path d="M620,41L656,103L821,18Z" fill="#2e3343" stroke="#2e3343" stroke-width="1.51"/><path d="M1860,2421L1578,2543L2032,2427Z" fill="#1f2228" stroke="#1f2228" stroke-width="1.51"/><path d="M2032,2427L2810,2494L2214,2412Z" fill="#1e2025" stroke="#1e2025" stroke-width="1.51"/><path d="M1389,2386L1578,2543L1619,2273Z" fill="#212329" stroke="#212329" stroke-width="1.51"/><path d="M883,2485L1578,2543L1389,2386Z" fill="#21242b" stroke="#21242b" stroke-width="1.51"/><path d="M3084,-122L3118,-193L2900,-140Z" fill="#272c39" stroke="#272c39" stroke-width="1.51"/><path d="M3421,-86L3118,-193L3084,-122Z" fill="#272c38" stroke="#272c38" stroke-width="1.51"/><path d="M3421,-86L3116,176L3350,235Z" fill="#262935" stroke="#262935" stroke-width="1.51"/><path d="M3357,1616L3595,1221L3351,1229Z" fill="#1f2127" stroke="#1f2127" stroke-width="1.51"/><path d="M3459,942L3615,837L3323,666Z" fill="#21242b" stroke="#21242b" stroke-width="1.51"/><path d="M3698,1089L3595,1221L3772,1123Z" fill="#1f2228" stroke="#1f2228" stroke-width="1.51"/><path d="M3698,1089L3615,837L3459,942Z" fill="#20232a" stroke="#20232a" stroke-width="1.51"/><path d="M369,484L592,610L637,478Z" fill="#2b303e" stroke="#2b303e" stroke-width="1.51"/><path d="M693,-229L620,41L821,18Z" fill="#2e3445" stroke="#2e3445" stroke-width="1.51"/><path d="M488,1368L418,1545L630,1561Z" fill="#262a36" stroke="#262a36" stroke-width="1.51"/><path d="M289,1473L418,1545L488,1368Z" fill="#262b38" stroke="#262b38" stroke-width="1.51"/><path d="M260,1345L540,1080L168,1044Z" fill="#292d3b" stroke="#292d3b" stroke-width="1.51"/><path d="M937,2077L1039,2350L1212,2207Z" fill="#22252d" stroke="#22252d" stroke-width="1.51"/><path d="M825,2300L1039,2350L937,2077Z" fill="#23262e" stroke="#23262e" stroke-width="1.51"/><path d="M3676,1627L3595,1221L3357,1616Z" fill="#1e2026" stroke="#1e2026" stroke-width="1.51"/><path d="M2981,2128L3095,2231L3208,1935Z" fill="#1d1f24" stroke="#1d1f24" stroke-width="1.51"/><path d="M2923,2405L2981,2128L2748,2173Z" fill="#1d1f24" stroke="#1d1f24" stroke-width="1.51"/><path d="M1162,-231L806,-225L1120,-85Z" fill="#2d3344" stroke="#2d3344" stroke-width="1.51"/><path d="M522,-346L806,-225L1162,-231Z" fill="#2f3548" stroke="#2f3548" stroke-width="1.51"/><path d="M369,484L637,478L409,112Z" fill="#2d3241" stroke="#2d3241" stroke-width="1.51"/><path d="M409,112L637,478L656,103Z" fill="#2c3242" stroke="#2c3242" stroke-width="1.51"/><path d="M2810,2494L2748,2173L2593,2263Z" fill="#1d1f24" stroke="#1d1f24" stroke-width="1.51"/><path d="M2810,2494L2593,2263L2510,2403Z" fill="#1d1f24" stroke="#1d1f24" stroke-width="1.51"/><path d="M3454,1867L3357,1616L3208,1935Z" fill="#1d1f25" stroke="#1d1f25" stroke-width="1.51"/><path d="M3595,1221L3698,1089L3459,942Z" fill="#1f2229" stroke="#1f2229" stroke-width="1.51"/><path d="M3389,1995L3454,1867L3208,1935Z" fill="#1d1f24" stroke="#1d1f24" stroke-width="1.51"/><path d="M422,1814L644,2047L752,1697Z" fill="#242933" stroke="#242933" stroke-width="1.51"/><path d="M1578,2543L2810,2494L2032,2427Z" fill="#1f2126" stroke="#1f2126" stroke-width="1.51"/><path d="M3387,295L3687,122L3350,235Z" fill="#242832" stroke="#242832" stroke-width="1.51"/><path d="M3699,603L3597,339L3323,666Z" fill="#22262e" stroke="#22262e" stroke-width="1.51"/><path d="M3699,603L3323,666L3615,837Z" fill="#21252c" stroke="#21252c" stroke-width="1.51"/><path d="M3095,2231L3389,1995L3208,1935Z" fill="#1d1f24" stroke="#1d1f24" stroke-width="1.51"/><path d="M3545,1928L3389,1995L3701,2236Z" fill="#1d1f23" stroke="#1d1f23" stroke-width="1.51"/><path d="M105,434L265,700L353,554Z" fill="#2c3140" stroke="#2c3140" stroke-width="1.51"/><path d="M353,554L265,700L592,610Z" fill="#2b303e" stroke="#2b303e" stroke-width="1.51"/><path d="M3825,534L3699,603L3962,925Z" fill="#21242b" stroke="#21242b" stroke-width="1.51"/><path d="M1039,2350L883,2485L1389,2386Z" fill="#21252c" stroke="#21252c" stroke-width="1.51"/><path d="M644,2047L825,2300L937,2077Z" fill="#232730" stroke="#232730" stroke-width="1.51"/><path d="M168,1044L540,1080L517,891Z" fill="#292d3b" stroke="#292d3b" stroke-width="1.51"/><path d="M418,1545L422,1814L630,1561Z" fill="#252a35" stroke="#252a35" stroke-width="1.51"/><path d="M522,-346L693,-229L806,-225Z" fill="#2f3649" stroke="#2f3649" stroke-width="1.51"/><path d="M806,-225L693,-229L821,18Z" fill="#2e3446" stroke="#2e3446" stroke-width="1.51"/><path d="M620,41L409,112L656,103Z" fill="#2e3344" stroke="#2e3344" stroke-width="1.51"/><path d="M369,484L105,434L353,554Z" fill="#2c3241" stroke="#2c3241" stroke-width="1.51"/><path d="M260,1345L289,1473L488,1368Z" fill="#272c39" stroke="#272c39" stroke-width="1.51"/><path d="M644,2047L634,2261L825,2300Z" fill="#242731" stroke="#242731" stroke-width="1.51"/><path d="M156,1773L422,1814L418,1545Z" fill="#262a37" stroke="#262a37" stroke-width="1.51"/><path d="M265,700L210,842L517,891Z" fill="#2b2f3e" stroke="#2b2f3e" stroke-width="1.51"/><path d="M3118,-193L3317,-259L2866,-338Z" fill="#282d3b" stroke="#282d3b" stroke-width="1.51"/><path d="M3545,-97L3421,-86L3687,122Z" fill="#262a36" stroke="#262a36" stroke-width="1.51"/><path d="M3698,1089L3962,925L3615,837Z" fill="#202329" stroke="#202329" stroke-width="1.51"/><path d="M3896,1320L3772,1123L3595,1221Z" fill="#1f2127" stroke="#1f2127" stroke-width="1.51"/><path d="M422,1814L540,2039L644,2047Z" fill="#252933" stroke="#252933" stroke-width="1.51"/><path d="M510,-118L409,112L620,41Z" fill="#2e3446" stroke="#2e3446" stroke-width="1.51"/><path d="M-111,923L66,978L-95,692Z" fill="#2c3141" stroke="#2c3141" stroke-width="1.51"/><path d="M3571,1866L3676,1627L3357,1616Z" fill="#1d2025" stroke="#1d2025" stroke-width="1.51"/><path d="M3571,1866L3357,1616L3454,1867Z" fill="#1d1f24" stroke="#1d1f24" stroke-width="1.51"/><path d="M3421,-86L3317,-259L3118,-193Z" fill="#272c39" stroke="#272c39" stroke-width="1.51"/><path d="M3545,1928L3571,1866L3454,1867Z" fill="#1d1f24" stroke="#1d1f24" stroke-width="1.51"/><path d="M3545,1928L3454,1867L3389,1995Z" fill="#1d1f24" stroke="#1d1f24" stroke-width="1.51"/><path d="M210,842L168,1044L517,891Z" fill="#2a2f3d" stroke="#2a2f3d" stroke-width="1.51"/><path d="M-71,1535L156,1773L289,1473Z" fill="#272c3a" stroke="#272c3a" stroke-width="1.51"/><path d="M3882,1787L3781,1553L3676,1627Z" fill="#1d1f24" stroke="#1d1f24" stroke-width="1.51"/><path d="M3405,2283L3389,1995L3095,2231Z" fill="#1d1f23" stroke="#1d1f23" stroke-width="1.51"/><path d="M3405,2283L3095,2231L3272,2483Z" fill="#1d1e23" stroke="#1d1e23" stroke-width="1.51"/><path d="M693,-229L510,-118L620,41Z" fill="#2e3547" stroke="#2e3547" stroke-width="1.51"/><path d="M825,2300L883,2485L1039,2350Z" fill="#23262e" stroke="#23262e" stroke-width="1.51"/><path d="M540,2039L634,2261L644,2047Z" fill="#242832" stroke="#242832" stroke-width="1.51"/><path d="M454,2265L634,2261L540,2039Z" fill="#252932" stroke="#252932" stroke-width="1.51"/><path d="M741,2542L883,2485L825,2300Z" fill="#23262f" stroke="#23262f" stroke-width="1.51"/><path d="M3676,1627L3781,1553L3595,1221Z" fill="#1e2026" stroke="#1e2026" stroke-width="1.51"/><path d="M3882,1787L3676,1627L3571,1866Z" fill="#1d1f24" stroke="#1d1f24" stroke-width="1.51"/><path d="M3687,122L3421,-86L3350,235Z" fill="#252934" stroke="#252934" stroke-width="1.51"/><path d="M3421,-86L3545,-97L3317,-259Z" fill="#272c38" stroke="#272c38" stroke-width="1.51"/><path d="M3699,603L3825,534L3597,339Z" fill="#22262e" stroke="#22262e" stroke-width="1.51"/><path d="M3962,925L3699,603L3615,837Z" fill="#21242b" stroke="#21242b" stroke-width="1.51"/><path d="M3962,925L3698,1089L3772,1123Z" fill="#202228" stroke="#202228" stroke-width="1.51"/><path d="M3687,122L3387,295L3597,339Z" fill="#242832" stroke="#242832" stroke-width="1.51"/><path d="M3829,310L3687,122L3597,339Z" fill="#242831" stroke="#242831" stroke-width="1.51"/><path d="M168,1044L-74,1277L260,1345Z" fill="#292e3c" stroke="#292e3c" stroke-width="1.51"/><path d="M156,1773L294,2027L422,1814Z" fill="#262b36" stroke="#262b36" stroke-width="1.51"/><path d="M210,842L66,978L168,1044Z" fill="#2a2f3e" stroke="#2a2f3e" stroke-width="1.51"/><path d="M-95,692L210,842L265,700Z" fill="#2b3040" stroke="#2b3040" stroke-width="1.51"/><path d="M3916,1922L3882,1787L3571,1866Z" fill="#1d1f23" stroke="#1d1f23" stroke-width="1.51"/><path d="M3272,2483L3095,2231L2923,2405Z" fill="#1d1f23" stroke="#1d1f23" stroke-width="1.51"/><path d="M3781,1553L3896,1320L3595,1221Z" fill="#1e2026" stroke="#1e2026" stroke-width="1.51"/><path d="M3825,534L3829,310L3597,339Z" fill="#23262f" stroke="#23262f" stroke-width="1.51"/><path d="M3955,-248L3639,-359L3545,-97Z" fill="#272c39" stroke="#272c39" stroke-width="1.51"/><path d="M3861,211L3829,310L4071,416Z" fill="#242730" stroke="#242730" stroke-width="1.51"/><path d="M153,228L105,434L369,484Z" fill="#2e3343" stroke="#2e3343" stroke-width="1.51"/><path d="M153,228L369,484L409,112Z" fill="#2e3344" stroke="#2e3344" stroke-width="1.51"/><path d="M693,-229L522,-346L510,-118Z" fill="#303649" stroke="#303649" stroke-width="1.51"/><path d="M142,-69L153,228L409,112Z" fill="#2f3548" stroke="#2f3548" stroke-width="1.51"/><path d="M1440,-335L522,-346L1162,-231Z" fill="#2e3446" stroke="#2e3446" stroke-width="1.51"/><path d="M3639,-359L522,-346L1440,-335Z" fill="#2b3142" stroke="#2b3142" stroke-width="1.51"/><path d="M4019,1014L3962,925L3772,1123Z" fill="#202228" stroke="#202228" stroke-width="1.51"/><path d="M142,-69L409,112L510,-118Z" fill="#2f3648" stroke="#2f3648" stroke-width="1.51"/><path d="M3373,2493L3272,2483L2810,2494Z" fill="#1c1e22" stroke="#1c1e22" stroke-width="1.51"/><path d="M2810,2494L3272,2483L2923,2405Z" fill="#1c1e23" stroke="#1c1e23" stroke-width="1.51"/><path d="M105,434L72,462L265,700Z" fill="#2d3242" stroke="#2d3242" stroke-width="1.51"/><path d="M-82,246L72,462L105,434Z" fill="#2e3445" stroke="#2e3445" stroke-width="1.51"/><path d="M422,1814L294,2027L540,2039Z" fill="#262935" stroke="#262935" stroke-width="1.51"/><path d="M634,2261L741,2542L825,2300Z" fill="#242730" stroke="#242730" stroke-width="1.51"/><path d="M156,1773L418,1545L289,1473Z" fill="#262b38" stroke="#262b38" stroke-width="1.51"/><path d="M-71,1535L289,1473L260,1345Z" fill="#272c3a" stroke="#272c3a" stroke-width="1.51"/><path d="M453,2401L741,2542L634,2261Z" fill="#242831" stroke="#242831" stroke-width="1.51"/><path d="M883,2485L741,2542L1578,2543Z" fill="#22252c" stroke="#22252c" stroke-width="1.51"/><path d="M294,2027L454,2265L540,2039Z" fill="#252934" stroke="#252934" stroke-width="1.51"/><path d="M3829,310L3861,211L3687,122Z" fill="#252831" stroke="#252831" stroke-width="1.51"/><path d="M4071,416L3829,310L3825,534Z" fill="#23262e" stroke="#23262e" stroke-width="1.51"/><path d="M3962,925L4079,691L3825,534Z" fill="#22242a" stroke="#22242a" stroke-width="1.51"/><path d="M3896,1320L4019,1014L3772,1123Z" fill="#1f2227" stroke="#1f2227" stroke-width="1.51"/><path d="M3272,2483L3373,2493L3405,2283Z" fill="#1c1f22" stroke="#1c1f22" stroke-width="1.51"/><path d="M3916,1922L3571,1866L3545,1928Z" fill="#1d1f23" stroke="#1d1f23" stroke-width="1.51"/><path d="M4157,1589L4090,1257L3896,1320Z" fill="#1e2025" stroke="#1e2025" stroke-width="1.51"/><path d="M4106,2541L3373,2493L2810,2494Z" fill="#1c1e21" stroke="#1c1e21" stroke-width="1.51"/><path d="M3896,1320L4090,1257L4019,1014Z" fill="#1f2127" stroke="#1f2127" stroke-width="1.51"/><path d="M3701,2236L3389,1995L3405,2283Z" fill="#1c1f23" stroke="#1c1f23" stroke-width="1.51"/><path d="M66,978L-74,1277L168,1044Z" fill="#2a2f3e" stroke="#2a2f3e" stroke-width="1.51"/><path d="M-111,923L-74,1277L66,978Z" fill="#2b303f" stroke="#2b303f" stroke-width="1.51"/><path d="M204,2200L454,2265L294,2027Z" fill="#252a35" stroke="#252a35" stroke-width="1.51"/><path d="M204,2200L453,2401L454,2265Z" fill="#252933" stroke="#252933" stroke-width="1.51"/><path d="M454,2265L453,2401L634,2261Z" fill="#252832" stroke="#252832" stroke-width="1.51"/><path d="M-95,692L66,978L210,842Z" fill="#2b3040" stroke="#2b3040" stroke-width="1.51"/><path d="M-95,692L265,700L72,462Z" fill="#2d3242" stroke="#2d3242" stroke-width="1.51"/><path d="M-343,555L-95,692L-331,397Z" fill="#2e3446" stroke="#2e3446" stroke-width="1.51"/><path d="M4137,900L3962,925L4019,1014Z" fill="#202228" stroke="#202228" stroke-width="1.51"/><path d="M4137,900L4079,691L3962,925Z" fill="#202329" stroke="#202329" stroke-width="1.51"/><path d="M153,228L-82,246L105,434Z" fill="#2f3446" stroke="#2f3446" stroke-width="1.51"/><path d="M161,-210L142,-69L510,-118Z" fill="#30374b" stroke="#30374b" stroke-width="1.51"/><path d="M4157,1589L3896,1320L3781,1553Z" fill="#1e2024" stroke="#1e2024" stroke-width="1.51"/><path d="M3545,-97L3639,-359L3317,-259Z" fill="#272c39" stroke="#272c39" stroke-width="1.51"/><path d="M3317,-259L3639,-359L2866,-338Z" fill="#282d3b" stroke="#282d3b" stroke-width="1.51"/><path d="M2866,-338L3639,-359L1440,-335Z" fill="#292e3d" stroke="#292e3d" stroke-width="1.51"/><path d="M3953,-72L3545,-97L3687,122Z" fill="#262a35" stroke="#262a35" stroke-width="1.51"/><path d="M3953,-72L3687,122L3861,211Z" fill="#252933" stroke="#252933" stroke-width="1.51"/><path d="M3676,2483L3701,2236L3405,2283Z" fill="#1c1e22" stroke="#1c1e22" stroke-width="1.51"/><path d="M-74,1277L-71,1535L260,1345Z" fill="#292d3c" stroke="#292d3c" stroke-width="1.51"/><path d="M74,2007L204,2200L294,2027Z" fill="#272b36" stroke="#272b36" stroke-width="1.51"/><path d="M-159,1471L-71,1535L-74,1277Z" fill="#292e3d" stroke="#292e3d" stroke-width="1.51"/><path d="M3882,1787L4157,1589L3781,1553Z" fill="#1d1f24" stroke="#1d1f24" stroke-width="1.51"/><path d="M3884,2118L3916,1922L3545,1928Z" fill="#1d1e22" stroke="#1d1e22" stroke-width="1.51"/><path d="M4090,1257L4137,900L4019,1014Z" fill="#1f2228" stroke="#1f2228" stroke-width="1.51"/><path d="M4079,691L4071,416L3825,534Z" fill="#21252c" stroke="#21252c" stroke-width="1.51"/><path d="M4184,231L4071,416L4283,328Z" fill="#23262f" stroke="#23262f" stroke-width="1.51"/><path d="M74,2007L294,2027L156,1773Z" fill="#272b38" stroke="#272b38" stroke-width="1.51"/><path d="M-71,1535L-28,1784L156,1773Z" fill="#282c3a" stroke="#282c3a" stroke-width="1.51"/><path d="M-28,1784L74,2007L156,1773Z" fill="#272c38" stroke="#272c38" stroke-width="1.51"/><path d="M-62,-17L-82,246L153,228Z" fill="#2f3649" stroke="#2f3649" stroke-width="1.51"/><path d="M522,-346L161,-210L510,-118Z" fill="#30374b" stroke="#30374b" stroke-width="1.51"/><path d="M-62,-17L153,228L142,-69Z" fill="#30364a" stroke="#30364a" stroke-width="1.51"/><path d="M-95,692L-214,821L-111,923Z" fill="#2c3142" stroke="#2c3142" stroke-width="1.51"/><path d="M-71,1535L-203,1709L-28,1784Z" fill="#282d3b" stroke="#282d3b" stroke-width="1.51"/><path d="M-336,1317L-159,1471L-74,1277Z" fill="#292f3e" stroke="#292f3e" stroke-width="1.51"/><path d="M-237,1012L-74,1277L-111,923Z" fill="#2b3040" stroke="#2b3040" stroke-width="1.51"/><path d="M-343,555L-214,821L-95,692Z" fill="#2d3344" stroke="#2d3344" stroke-width="1.51"/><path d="M3701,2236L3884,2118L3545,1928Z" fill="#1c1e22" stroke="#1c1e22" stroke-width="1.51"/><path d="M4167,1736L4157,1589L3882,1787Z" fill="#1d1e23" stroke="#1d1e23" stroke-width="1.51"/><path d="M3823,2493L3884,2118L3701,2236Z" fill="#1c1e21" stroke="#1c1e21" stroke-width="1.51"/><path d="M-214,821L-237,1012L-111,923Z" fill="#2c3142" stroke="#2c3142" stroke-width="1.51"/><path d="M4158,3L3953,-72L3861,211Z" fill="#252933" stroke="#252933" stroke-width="1.51"/><path d="M-219,2020L59,2139L74,2007Z" fill="#272c39" stroke="#272c39" stroke-width="1.51"/><path d="M74,2007L59,2139L204,2200Z" fill="#262b37" stroke="#262b37" stroke-width="1.51"/><path d="M204,2200L201,2482L453,2401Z" fill="#262a34" stroke="#262a34" stroke-width="1.51"/><path d="M-219,2020L74,2007L-28,1784Z" fill="#282d3a" stroke="#282d3a" stroke-width="1.51"/><path d="M4417,1113L4308,893L4137,900Z" fill="#202228" stroke="#202228" stroke-width="1.51"/><path d="M4167,1736L3882,1787L3916,1922Z" fill="#1c1f23" stroke="#1c1f23" stroke-width="1.51"/><path d="M3373,2493L3676,2483L3405,2283Z" fill="#1c1e21" stroke="#1c1e21" stroke-width="1.51"/><path d="M-331,397L-95,692L72,462Z" fill="#2e3345" stroke="#2e3345" stroke-width="1.51"/><path d="M-12,-304L-62,-17L142,-69Z" fill="#31384d" stroke="#31384d" stroke-width="1.51"/><path d="M-62,-17L-152,144L-82,246Z" fill="#30374b" stroke="#30374b" stroke-width="1.51"/><path d="M-343,555L-336,1317L-237,1012Z" fill="#2c3243" stroke="#2c3243" stroke-width="1.51"/><path d="M4150,2180L4025,2049L3884,2118Z" fill="#1c1e21" stroke="#1c1e21" stroke-width="1.51"/><path d="M3884,2118L4025,2049L3916,1922Z" fill="#1d1e22" stroke="#1d1e22" stroke-width="1.51"/><path d="M4025,2049L4167,1736L3916,1922Z" fill="#1c1e22" stroke="#1c1e22" stroke-width="1.51"/><path d="M4329,726L4079,691L4137,900Z" fill="#212329" stroke="#212329" stroke-width="1.51"/><path d="M-336,1317L-203,1709L-159,1471Z" fill="#292f3d" stroke="#292f3d" stroke-width="1.51"/><path d="M-159,1471L-203,1709L-71,1535Z" fill="#282e3c" stroke="#282e3c" stroke-width="1.51"/><path d="M4088,-256L3955,-248L3953,-72Z" fill="#272b37" stroke="#272b37" stroke-width="1.51"/><path d="M3953,-72L3955,-248L3545,-97Z" fill="#272b37" stroke="#272b37" stroke-width="1.51"/><path d="M4071,416L4184,231L3861,211Z" fill="#232730" stroke="#232730" stroke-width="1.51"/><path d="M4329,726L4071,416L4079,691Z" fill="#21242b" stroke="#21242b" stroke-width="1.51"/><path d="M4137,900L4090,1257L4417,1113Z" fill="#1f2127" stroke="#1f2127" stroke-width="1.51"/><path d="M4261,1556L4090,1257L4157,1589Z" fill="#1d1f24" stroke="#1d1f24" stroke-width="1.51"/><path d="M59,2464L204,2200L59,2139Z" fill="#262b36" stroke="#262b36" stroke-width="1.51"/><path d="M59,2464L201,2482L204,2200Z" fill="#262a35" stroke="#262a35" stroke-width="1.51"/><path d="M453,2401L201,2482L741,2542Z" fill="#252832" stroke="#252832" stroke-width="1.51"/><path d="M4304,1689L4261,1556L4157,1589Z" fill="#1d1f23" stroke="#1d1f23" stroke-width="1.51"/><path d="M4304,1689L4157,1589L4167,1736Z" fill="#1d1f23" stroke="#1d1f23" stroke-width="1.51"/><path d="M-237,1012L-336,1317L-74,1277Z" fill="#2b3040" stroke="#2b3040" stroke-width="1.51"/><path d="M-343,555L-237,1012L-214,821Z" fill="#2d3344" stroke="#2d3344" stroke-width="1.51"/><path d="M4308,893L4329,726L4137,900Z" fill="#202329" stroke="#202329" stroke-width="1.51"/><path d="M4417,1113L4329,726L4308,893Z" fill="#202228" stroke="#202228" stroke-width="1.51"/><path d="M-331,397L72,462L-82,246Z" fill="#2f3547" stroke="#2f3547" stroke-width="1.51"/><path d="M-152,144L-331,397L-82,246Z" fill="#303649" stroke="#303649" stroke-width="1.51"/><path d="M-62,-17L-264,-68L-152,144Z" fill="#31384d" stroke="#31384d" stroke-width="1.51"/><path d="M161,-210L-12,-304L142,-69Z" fill="#31394d" stroke="#31394d" stroke-width="1.51"/><path d="M522,-346L-12,-304L161,-210Z" fill="#31384e" stroke="#31384e" stroke-width="1.51"/><path d="M4184,231L4158,3L3861,211Z" fill="#242832" stroke="#242832" stroke-width="1.51"/><path d="M4392,251L4158,3L4184,231Z" fill="#242831" stroke="#242831" stroke-width="1.51"/><path d="M3676,2483L3823,2493L3701,2236Z" fill="#1c1e21" stroke="#1c1e21" stroke-width="1.51"/><path d="M4258,1991L4304,1689L4167,1736Z" fill="#1c1e22" stroke="#1c1e22" stroke-width="1.51"/><path d="M4106,2541L3823,2493L3676,2483Z" fill="#1b1d20" stroke="#1b1d20" stroke-width="1.51"/><path d="M4106,2541L3676,2483L3373,2493Z" fill="#1c1d21" stroke="#1c1d21" stroke-width="1.51"/><path d="M4329,726L4283,328L4071,416Z" fill="#22252c" stroke="#22252c" stroke-width="1.51"/><path d="M-264,-68L-331,397L-152,144Z" fill="#30374c" stroke="#30374c" stroke-width="1.51"/><path d="M4261,1556L4385,1285L4090,1257Z" fill="#1e2025" stroke="#1e2025" stroke-width="1.51"/><path d="M4261,1556L4304,1689L4385,1285Z" fill="#1d1f24" stroke="#1d1f24" stroke-width="1.51"/><path d="M4258,1991L4167,1736L4025,2049Z" fill="#1c1e22" stroke="#1c1e22" stroke-width="1.51"/><path d="M4385,1285L4417,1113L4090,1257Z" fill="#1f2126" stroke="#1f2126" stroke-width="1.51"/><path d="M4329,726L4392,251L4283,328Z" fill="#23262d" stroke="#23262d" stroke-width="1.51"/><path d="M3955,-248L4088,-256L3639,-359Z" fill="#282c39" stroke="#282c39" stroke-width="1.51"/><path d="M4158,3L4088,-256L3953,-72Z" fill="#262a36" stroke="#262a36" stroke-width="1.51"/><path d="M4370,-200L4088,-256L4158,3Z" fill="#262b36" stroke="#262b36" stroke-width="1.51"/><path d="M-180,2195L59,2464L59,2139Z" fill="#272b38" stroke="#272b38" stroke-width="1.51"/><path d="M-203,1709L-219,2020L-28,1784Z" fill="#282d3b" stroke="#282d3b" stroke-width="1.51"/><path d="M-336,1317L-219,2020L-203,1709Z" fill="#292e3d" stroke="#292e3d" stroke-width="1.51"/><path d="M-12,-304L-173,-234L-62,-17Z" fill="#31394f" stroke="#31394f" stroke-width="1.51"/><path d="M3823,2493L4150,2180L3884,2118Z" fill="#1c1e21" stroke="#1c1e21" stroke-width="1.51"/><path d="M-173,-234L-264,-68L-62,-17Z" fill="#31394f" stroke="#31394f" stroke-width="1.51"/><path d="M-219,2020L-180,2195L59,2139Z" fill="#272c39" stroke="#272c39" stroke-width="1.51"/><path d="M4304,1689L4327,2171L4385,1285Z" fill="#1d1e23" stroke="#1d1e23" stroke-width="1.51"/><path d="M4385,1285L4327,2171L4417,1113Z" fill="#1d1f24" stroke="#1d1f24" stroke-width="1.51"/><path d="M4150,2180L4258,1991L4025,2049Z" fill="#1c1e21" stroke="#1c1e21" stroke-width="1.51"/><path d="M4283,328L4392,251L4184,231Z" fill="#242730" stroke="#242730" stroke-width="1.51"/><path d="M4417,1113L4392,251L4329,726Z" fill="#21242a" stroke="#21242a" stroke-width="1.51"/><path d="M4258,1991L4327,2171L4304,1689Z" fill="#1c1e22" stroke="#1c1e22" stroke-width="1.51"/><path d="M4150,2180L4327,2171L4258,1991Z" fill="#1c1e21" stroke="#1c1e21" stroke-width="1.51"/><path d="M4280,2450L4327,2171L4150,2180Z" fill="#1c1d20" stroke="#1c1d20" stroke-width="1.51"/><path d="M3823,2493L4106,2541L4150,2180Z" fill="#1b1e20" stroke="#1b1e20" stroke-width="1.51"/><path d="M1578,2543L4106,2541L2810,2494Z" fill="#1d1f23" stroke="#1d1f23" stroke-width="1.51"/><path d="M4392,251L4392,-104L4158,3Z" fill="#252933" stroke="#252933" stroke-width="1.51"/><path d="M4417,1113L4392,-104L4392,251Z" fill="#23262d" stroke="#23262d" stroke-width="1.51"/><path d="M4392,-104L4370,-200L4158,3Z" fill="#262a35" stroke="#262a35" stroke-width="1.51"/><path d="M4088,-256L4370,-200L3639,-359Z" fill="#272c38" stroke="#272c38" stroke-width="1.51"/><path d="M-219,2020L-316,2404L-180,2195Z" fill="#282d3a" stroke="#282d3a" stroke-width="1.51"/><path d="M-180,2195L-316,2404L59,2464Z" fill="#272c38" stroke="#272c38" stroke-width="1.51"/><path d="M-336,1317L-316,2404L-219,2020Z" fill="#282e3c" stroke="#282e3c" stroke-width="1.51"/><path d="M4106,2541L4280,2450L4150,2180Z" fill="#1c1d20" stroke="#1c1d20" stroke-width="1.51"/></svg>