<?xml version="1.0" standalone="no"?>
<!DOCTYPE svg PUBLIC "-//W3C//DTD SVG 20010904//EN"
 "http://www.w3.org/TR/2001/REC-SVG-20010904/DTD/svg10.dtd">
<svg version="1.0" xmlns="http://www.w3.org/2000/svg"
 width="512.000000pt" height="512.000000pt" viewBox="0 0 512.000000 512.000000"
 preserveAspectRatio="xMidYMid meet">
<metadata>
Created by potrace 1.11, written by Peter Selinger 2001-2013
</metadata>
<g transform="translate(0.000000,512.000000) scale(0.100000,-0.100000)"
fill="#000000" stroke="none">
<path d="M3839 5107 c-46 -13 -133 -59 -144 -77 -4 -7 -580 -10 -1655 -10
-1151 0 -1656 -3 -1673 -11 -55 -25 -52 30 -55 -1089 -3 -1217 2 -1345 67
-1660 42 -202 133 -475 209 -626 54 -107 62 -87 -112 -264 -135 -137 -162
-170 -191 -232 -85 -181 -59 -372 69 -515 94 -105 208 -155 349 -154 151 0
237 43 393 194 l105 100 57 -55 c308 -298 758 -553 1204 -683 l98 -28 112 32
c1057 304 1877 1210 2083 2301 45 237 47 283 52 960 4 516 7 658 18 670 7 8
19 29 28 45 33 66 37 132 29 495 -8 352 -8 356 -33 410 -48 103 -114 159 -217
184 -82 20 -729 30 -793 13z m728 -203 c58 -7 100 -50 107 -107 3 -23 7 -181
10 -351 4 -247 2 -315 -8 -340 -8 -17 -473 -490 -1060 -1076 l-1046 -1045 -1
40 c0 22 -4 168 -9 325 l-8 285 778 780 c427 429 785 791 794 805 43 66 -4
150 -85 150 l-43 0 -793 -792 -792 -791 -128 1 c-70 1 -220 5 -332 8 l-203 7
1048 1049 c711 710 1059 1051 1079 1058 30 9 610 4 692 -6z m-1257 -259 l-175
-175 -818 0 -819 0 -28 -28 c-21 -21 -30 -42 -34 -78 -18 -152 -67 -257 -159
-340 -72 -65 -158 -103 -269 -120 -75 -11 -97 -18 -118 -39 l-25 -25 0 -573
c0 -581 4 -656 41 -852 23 -120 69 -277 117 -406 l25 -66 -132 -132 -132 -132
-44 103 c-91 215 -158 447 -194 678 -31 196 -36 382 -36 1368 l0 992 1487 0
1488 0 -175 -175z m-1087 -1087 l-712 -712 -109 107 c-97 95 -113 107 -144
107 -49 0 -83 -30 -123 -111 -19 -38 -44 -83 -55 -101 l-20 -33 0 446 0 446
58 12 c120 26 262 113 353 216 65 73 127 197 145 285 3 19 8 38 11 43 2 4 298
7 656 7 l652 0 -712 -712z m2384 -388 c-6 -548 -13 -645 -67 -890 -144 -651
-536 -1251 -1070 -1636 -255 -184 -544 -329 -818 -410 l-93 -28 -77 23 c-269
78 -573 228 -818 403 -78 56 -286 229 -311 260 -10 12 9 36 110 136 l122 121
80 -71 c105 -93 252 -203 359 -267 115 -70 329 -172 444 -212 l93 -32 116 42
c328 120 616 305 869 558 353 353 591 808 673 1288 31 180 41 330 41 645 l0
285 173 173 c147 147 173 169 176 150 2 -13 1 -255 -2 -538z m-557 -450 c-57
-738 -460 -1388 -1090 -1757 -91 -53 -273 -139 -355 -168 l-50 -17 -80 32
c-245 96 -524 271 -693 434 l-52 50 77 78 77 78 161 -160 c150 -149 164 -160
198 -160 28 0 96 32 290 136 138 74 262 147 275 160 14 16 22 38 22 61 0 32
-11 47 -107 145 l-107 109 719 719 720 720 3 -157 c2 -87 -2 -223 -8 -303z
m-2131 -574 l633 -633 -33 -20 c-19 -11 -83 -46 -143 -78 l-108 -58 -570 570
-570 570 73 142 c41 77 76 141 79 141 3 0 290 -285 639 -634z m431 437 c6 -6
20 -576 14 -582 -3 -3 -141 131 -307 297 l-302 303 295 -7 c162 -4 297 -9 300
-11z m-800 -808 l185 -185 -123 -122 -122 -123 -187 187 -188 188 120 120 c66
66 122 120 125 120 3 0 88 -83 190 -185z m-390 -390 l185 -185 -128 -127 -127
-128 -187 187 -188 188 125 125 c69 69 127 125 130 125 3 0 88 -83 190 -185z
m-400 -401 l185 -185 -49 -45 c-74 -68 -99 -78 -191 -79 -91 0 -136 17 -191
72 -49 48 -66 89 -72 165 -6 87 15 145 76 210 25 26 48 48 51 48 3 0 89 -84
191 -186z"/>
<path d="M4197 4570 c-82 -65 -10 -202 88 -170 68 23 88 102 39 159 -32 38
-87 43 -127 11z"/>
<path d="M907 4660 c-57 -15 -108 -44 -148 -87 -55 -57 -72 -98 -77 -186 -4
-71 -2 -82 27 -142 20 -39 47 -76 72 -96 153 -121 365 -76 450 96 29 60 31 71
27 142 -5 90 -27 139 -85 195 -68 66 -180 99 -266 78z m98 -204 c39 -17 55
-42 55 -89 0 -43 -46 -87 -90 -87 -44 0 -90 44 -90 87 0 46 15 72 53 88 40 18
32 17 72 1z"/>
</g>
</svg>
